<svg xmlns="http://www.w3.org/2000/svg" width="33" height="33" viewBox="0 0 33 33">
    <g fill="none" fill-rule="evenodd">
        <circle cx="16.5" cy="16.5" r="16.5" fill="#BD10E0" opacity=".187"/>
        <g transform="translate(4 4)">
            <circle cx="12.5" cy="12.5" r="12.5" fill="#BD10E0"/>
            <path fill="#FFF" fill-rule="nonzero" d="M17.897 6.584c-.78-.779-2.042-.779-2.82 0L7.17 14.49c-.055.054-.094.121-.114.195l-1.04 3.753c-.043.154 0 .32.114.432.113.113.278.157.431.114l3.754-1.04c.074-.02.141-.06.195-.114l7.907-7.906c.777-.779.777-2.04 0-2.82l-.52-.52zm-9.762 8.194l6.471-6.47 2.087 2.086-6.47 6.47-2.088-2.086zm-.417.836l1.668 1.668-2.307.639.64-2.307zM17.79 9.298l-.47.47-2.087-2.087.47-.47c.433-.433 1.134-.433 1.567 0l.52.52c.432.433.432 1.134 0 1.567z"/>
        </g>
    </g>
</svg>
